<svg xmlns="http://www.w3.org/2000/svg" viewBox="0 0 64 64" width="512"><path d="M12 2h40v28H12z" fill="#f4b2b0"/><path d="M47 5h2v2h-2zm-4 0h2v2h-2zm-4 0h2v2h-2zm23 48h-1V20c0-1.654-1.346-3-3-3h-5V2a1 1 0 0 0-1-1H12a1 1 0 0 0-1 1v15H6c-1.654 0-3 1.346-3 3v33H2a1 1 0 0 0-1 1v4c0 2.757 2.243 5 5 5h52c2.757 0 5-2.243 5-5v-4a1 1 0 0 0-1-1zM12 31h40a1 1 0 0 0 1-1v-7h2v26H9V23h2v7a1 1 0 0 0 1 1zm1-20h38v18H13zm38-8v6H13V3zM5 20a1 1 0 0 1 1-1h5v2H8a1 1 0 0 0-1 1v28a1 1 0 0 0 1 1h48a1 1 0 0 0 1-1V22a1 1 0 0 0-1-1h-3v-2h5a1 1 0 0 1 1 1v33H5zm56 38c0 1.654-1.346 3-3 3H6c-1.654 0-3-1.346-3-3v-3h58zm-4-1h2v2h-2zm-4 0h2v2h-2zm-4 0h2v2h-2zM24 14a1 1 0 0 0-1.8-.599l-6 8A1 1 0 0 0 17 23h5v4h2v-4h2v-2h-2zm-2 7h-3l3-4zm24-7a1 1 0 0 0-1.8-.599l-6 8A1 1 0 0 0 39 23h5v4h2v-4h2v-2h-2zm-2 7h-3l3-4zm-12-8c-2.206 0-4 1.794-4 4v6c0 2.206 1.794 4 4 4s4-1.794 4-4v-6c0-2.206-1.794-4-4-4zm2 10c0 1.103-.897 2-2 2s-2-.897-2-2v-6c0-1.103.897-2 2-2s2 .897 2 2zm-5.293 21.707L32 41.414l3.293 3.293 1.414-1.414L33.414 40l3.293-3.293-1.414-1.414L32 38.586l-3.293-3.293-1.414 1.414L30.586 40l-3.293 3.293zm12 0L44 41.414l3.293 3.293 1.414-1.414L45.414 40l3.293-3.293-1.414-1.414L44 38.586l-3.293-3.293-1.414 1.414L42.586 40l-3.293 3.293zm-24 0L20 41.414l3.293 3.293 1.414-1.414L21.414 40l3.293-3.293-1.414-1.414L20 38.586l-3.293-3.293-1.414 1.414L18.586 40l-3.293 3.293z" fill="#b3404a"/></svg>