<svg xmlns="http://www.w3.org/2000/svg" viewBox="0 0 201.387 201.387"><path d="M178.712 63.095l-10.24-17.067a3.41 3.41 0 0 0-2.927-1.657H35.838a3.41 3.41 0 0 0-2.927 1.657L22.67 63.095c-.633 1.056-.648 2.37-.043 3.44a3.41 3.41 0 0 0 2.97 1.732h150.187a3.41 3.41 0 0 0 2.97-1.732c.606-1.07.6-2.384-.043-3.44zM31.626 61.44l6.146-10.24h125.84l6.144 10.24H31.626z"/><path d="M179.197 64.68c-.094-1.814-1.592-3.238-3.4-3.238H25.6a3.4 3.4 0 0 0-3.4 3.238L15.363 197.8c-.048.934.3 1.848.934 2.526a3.42 3.42 0 0 0 2.475 1.062h163.84a3.43 3.43 0 0 0 2.478-1.062 3.42 3.42 0 0 0 .934-2.526l-6.827-133.12zM22.364 194.56L28.84 68.267h143.7l6.477 126.293H22.364zM126.292 75.093c-5.647 0-10.24 4.593-10.24 10.24s4.593 10.24 10.24 10.24 10.24-4.593 10.24-10.24-4.593-10.24-10.24-10.24zm0 13.654c-1.883 0-3.413-1.53-3.413-3.413a3.42 3.42 0 0 1 3.413-3.413 3.42 3.42 0 0 1 3.413 3.413 3.42 3.42 0 0 1-3.413 3.413zm-51.2-13.654c-5.647 0-10.24 4.593-10.24 10.24s4.593 10.24 10.24 10.24 10.24-4.593 10.24-10.24-4.593-10.24-10.24-10.24zm0 13.654a3.42 3.42 0 0 1-3.413-3.413 3.42 3.42 0 0 1 3.413-3.413 3.42 3.42 0 0 1 3.413 3.413 3.42 3.42 0 0 1-3.413 3.413zM100.692 0c-16 0-29.014 13.015-29.014 29.013v18.773c0 1.884 1.53 3.413 3.413 3.413h51.2c1.884 0 3.413-1.53 3.413-3.413V29.013C129.705 13.015 116.7 0 100.692 0zm22.186 44.373H78.505v-15.36c0-12.233 9.953-22.187 22.187-22.187s22.187 9.953 22.187 22.187v15.36z"/><path d="M126.292 85.333h-.263c-1.884 0-3.413 1.53-3.413 3.413 0 .466.092.91.263 1.316v17.457c0 12.233-9.953 22.187-22.187 22.187s-22.187-9.953-22.187-22.187V88.747c0-1.884-1.53-3.413-3.413-3.413s-3.413 1.53-3.413 3.413v18.773c0 15.998 13.015 29.013 29.013 29.013s29.013-13.015 29.013-29.013V88.747c0-1.884-1.53-3.414-3.413-3.414z"/></svg>