<svg width="80.892" height="20.776" viewBox="0 0 80.892 20.776" xmlns="http://www.w3.org/2000/svg"><g id="svgGroup" stroke-linecap="round" fill-rule="evenodd" font-size="9pt" style="fill:black;"><path d="M 9.912 9.828 L 10.528 7.56 L 11.312 7.56 L 11.312 14.532 L 10.528 14.532 L 9.912 12.264 Q 9.828 11.928 9.73 11.774 A 0.354 0.354 0 0 0 9.605 11.658 Q 9.55 11.626 9.478 11.605 A 0.94 0.94 0 0 0 9.352 11.578 Q 9.074 11.536 8.411 11.536 A 21.439 21.439 0 0 0 8.4 11.536 L 5.516 11.536 L 5.516 18.144 A 17.006 17.006 0 0 0 5.519 18.474 Q 5.531 19.113 5.596 19.27 A 0.223 0.223 0 0 0 5.6 19.278 A 0.267 0.267 0 0 0 5.694 19.384 Q 5.787 19.448 5.956 19.486 A 1.854 1.854 0 0 0 6.132 19.516 L 8.232 19.712 L 8.232 20.496 L 0 20.496 L 0 19.712 L 1.54 19.516 A 1.847 1.847 0 0 0 1.718 19.486 Q 1.893 19.446 1.986 19.378 A 0.261 0.261 0 0 0 2.072 19.278 A 0.49 0.49 0 0 0 2.103 19.172 Q 2.155 18.907 2.156 18.169 A 21.132 21.132 0 0 0 2.156 18.144 L 2.156 3.808 A 17.006 17.006 0 0 0 2.153 3.478 Q 2.141 2.839 2.076 2.682 A 0.223 0.223 0 0 0 2.072 2.674 A 0.267 0.267 0 0 0 1.978 2.568 Q 1.885 2.504 1.716 2.466 A 1.854 1.854 0 0 0 1.54 2.436 L 0 2.24 L 0 1.456 L 13.272 1.456 L 13.272 6.272 L 12.488 6.272 L 11.592 3.164 Q 11.508 2.828 11.41 2.674 A 0.354 0.354 0 0 0 11.285 2.558 Q 11.23 2.526 11.158 2.505 A 0.94 0.94 0 0 0 11.032 2.478 Q 10.754 2.436 10.091 2.436 A 21.439 21.439 0 0 0 10.08 2.436 L 5.516 2.436 L 5.516 10.556 L 8.4 10.556 Q 9.072 10.556 9.352 10.514 A 0.917 0.917 0 0 0 9.492 10.483 Q 9.562 10.46 9.616 10.428 A 0.348 0.348 0 0 0 9.73 10.318 Q 9.828 10.164 9.912 9.828 Z M 59.808 19.516 L 61.348 19.712 L 61.348 20.496 L 53.816 20.496 L 53.816 19.712 L 55.356 19.516 A 1.847 1.847 0 0 0 55.534 19.486 Q 55.709 19.446 55.802 19.378 A 0.261 0.261 0 0 0 55.888 19.278 A 0.49 0.49 0 0 0 55.919 19.172 Q 55.971 18.907 55.972 18.169 A 21.132 21.132 0 0 0 55.972 18.144 L 55.972 11.088 Q 55.972 9.156 55.398 8.274 A 1.838 1.838 0 0 0 54.073 7.418 A 2.523 2.523 0 0 0 53.704 7.392 A 2.338 2.338 0 0 0 53.292 7.431 Q 53.092 7.467 52.871 7.536 A 4.81 4.81 0 0 0 52.598 7.63 A 3.008 3.008 0 0 0 52.007 7.936 Q 51.746 8.109 51.484 8.346 A 5.452 5.452 0 0 0 51.338 8.484 A 3.654 3.654 0 0 0 50.86 9.068 Q 50.518 9.58 50.232 10.304 L 50.232 18.144 A 17.006 17.006 0 0 0 50.235 18.474 Q 50.247 19.113 50.312 19.27 A 0.223 0.223 0 0 0 50.316 19.278 A 0.267 0.267 0 0 0 50.41 19.384 Q 50.503 19.448 50.672 19.486 A 1.854 1.854 0 0 0 50.848 19.516 L 52.388 19.712 L 52.388 20.496 L 44.856 20.496 L 44.856 19.712 L 46.396 19.516 A 1.847 1.847 0 0 0 46.574 19.486 Q 46.749 19.446 46.842 19.378 A 0.261 0.261 0 0 0 46.928 19.278 A 0.49 0.49 0 0 0 46.959 19.172 Q 47.011 18.907 47.012 18.169 A 21.132 21.132 0 0 0 47.012 18.144 L 47.012 8.652 A 17.006 17.006 0 0 0 47.009 8.322 Q 46.997 7.683 46.932 7.526 A 0.223 0.223 0 0 0 46.928 7.518 A 0.267 0.267 0 0 0 46.834 7.412 Q 46.741 7.348 46.572 7.31 A 1.854 1.854 0 0 0 46.396 7.28 L 44.856 7.084 L 44.856 6.3 L 50.064 6.3 L 50.064 8.764 A 5.792 5.792 0 0 1 50.955 7.566 A 4.657 4.657 0 0 1 52.15 6.678 A 5.972 5.972 0 0 1 53.628 6.137 A 5.11 5.11 0 0 1 54.712 6.02 A 5.255 5.255 0 0 1 56.141 6.204 A 3.879 3.879 0 0 1 57.988 7.336 Q 59.192 8.652 59.192 11.06 L 59.192 18.144 A 17.006 17.006 0 0 0 59.195 18.474 Q 59.207 19.113 59.272 19.27 A 0.223 0.223 0 0 0 59.276 19.278 A 0.267 0.267 0 0 0 59.37 19.384 Q 59.463 19.448 59.632 19.486 A 1.854 1.854 0 0 0 59.808 19.516 Z M 29.288 19.516 L 30.828 19.712 L 30.828 20.496 L 25.62 20.496 L 25.62 18.032 A 5.815 5.815 0 0 1 24.802 19.185 A 4.527 4.527 0 0 1 23.604 20.118 A 5.64 5.64 0 0 1 22.17 20.659 A 4.86 4.86 0 0 1 21.112 20.776 A 4.794 4.794 0 0 1 19.683 20.573 A 3.772 3.772 0 0 1 17.948 19.446 Q 16.91 18.272 16.788 16.279 A 8.918 8.918 0 0 1 16.772 15.736 L 16.772 8.652 A 17.006 17.006 0 0 0 16.769 8.322 Q 16.757 7.683 16.692 7.526 A 0.223 0.223 0 0 0 16.688 7.518 A 0.267 0.267 0 0 0 16.594 7.412 Q 16.501 7.348 16.332 7.31 A 1.854 1.854 0 0 0 16.156 7.28 L 14.616 7.084 L 14.616 6.3 L 19.992 6.3 L 19.992 15.708 Q 19.992 17.373 20.397 18.258 A 2.4 2.4 0 0 0 20.538 18.522 A 1.93 1.93 0 0 0 21.045 19.081 Q 21.437 19.364 21.966 19.399 A 2.31 2.31 0 0 0 22.12 19.404 A 2.094 2.094 0 0 0 22.505 19.366 Q 22.695 19.33 22.905 19.262 A 4.502 4.502 0 0 0 23.17 19.166 A 2.783 2.783 0 0 0 23.699 18.883 Q 23.935 18.724 24.172 18.507 A 5.391 5.391 0 0 0 24.388 18.298 Q 24.867 17.808 25.244 16.989 A 7.991 7.991 0 0 0 25.452 16.492 L 25.452 8.652 A 17.084 17.084 0 0 0 25.449 8.322 Q 25.436 7.663 25.368 7.504 A 0.267 0.267 0 0 0 25.258 7.383 Q 25.158 7.321 24.981 7.295 A 1.715 1.715 0 0 0 24.836 7.28 L 22.736 7.084 L 22.736 6.3 L 28.672 6.3 L 28.672 18.144 A 17.006 17.006 0 0 0 28.675 18.474 Q 28.687 19.113 28.752 19.27 A 0.223 0.223 0 0 0 28.756 19.278 A 0.267 0.267 0 0 0 28.85 19.384 Q 28.943 19.448 29.112 19.486 A 1.854 1.854 0 0 0 29.288 19.516 Z M 79.212 17.164 L 80.892 17.584 A 5.795 5.795 0 0 1 80.591 18.579 Q 80.201 19.53 79.506 20.034 Q 78.484 20.776 77.028 20.776 Q 75.747 20.776 74.862 20.286 A 3.224 3.224 0 0 1 74.592 20.118 Q 73.64 19.46 73.192 18.368 Q 72.744 17.276 72.744 16.044 L 72.744 8.652 A 17.006 17.006 0 0 0 72.741 8.322 Q 72.729 7.683 72.664 7.526 A 0.223 0.223 0 0 0 72.66 7.518 A 0.267 0.267 0 0 0 72.566 7.412 Q 72.473 7.348 72.304 7.31 A 1.854 1.854 0 0 0 72.128 7.28 L 70.588 7.084 L 70.588 6.3 L 72.744 6.3 L 72.744 3.052 L 75.964 2.408 L 75.964 6.3 L 80.444 6.3 L 80.444 7.28 L 75.964 7.28 L 75.964 16.604 A 11.277 11.277 0 0 0 75.992 17.429 Q 76.05 18.215 76.228 18.704 A 1.851 1.851 0 0 0 76.412 19.082 A 1.8 1.8 0 0 0 76.725 19.451 A 1.224 1.224 0 0 0 77.56 19.768 A 1.512 1.512 0 0 0 78.08 19.683 A 1.297 1.297 0 0 0 78.694 19.208 A 1.761 1.761 0 0 0 78.899 18.82 Q 79.132 18.231 79.212 17.164 Z M 33.46 7.28 L 31.92 7.084 L 31.92 6.3 L 37.128 6.3 L 37.128 8.596 Q 38.836 6.02 41.188 6.02 Q 42.056 6.02 42.868 6.566 A 2.54 2.54 0 0 1 43.449 7.122 Q 43.88 7.676 44.207 8.582 A 8.624 8.624 0 0 1 44.212 8.596 L 41.72 9.94 A 6.51 6.51 0 0 0 41.496 9.368 Q 41.186 8.681 40.81 8.386 Q 40.292 7.98 39.704 7.98 Q 39.088 7.98 38.5 8.372 A 2.441 2.441 0 0 0 38.111 8.702 Q 37.71 9.113 37.296 9.828 L 37.296 18.144 A 17.006 17.006 0 0 0 37.299 18.474 Q 37.311 19.113 37.376 19.27 A 0.223 0.223 0 0 0 37.38 19.278 A 0.267 0.267 0 0 0 37.474 19.384 Q 37.567 19.448 37.736 19.486 A 1.854 1.854 0 0 0 37.912 19.516 L 40.012 19.712 L 40.012 20.496 L 31.92 20.496 L 31.92 19.712 L 33.46 19.516 A 1.847 1.847 0 0 0 33.638 19.486 Q 33.813 19.446 33.906 19.378 A 0.261 0.261 0 0 0 33.992 19.278 A 0.49 0.49 0 0 0 34.023 19.172 Q 34.075 18.907 34.076 18.169 A 21.132 21.132 0 0 0 34.076 18.144 L 34.076 8.652 A 17.006 17.006 0 0 0 34.073 8.322 Q 34.061 7.683 33.996 7.526 A 0.223 0.223 0 0 0 33.992 7.518 A 0.267 0.267 0 0 0 33.898 7.412 Q 33.805 7.348 33.636 7.31 A 1.854 1.854 0 0 0 33.46 7.28 Z M 63.84 7.28 L 62.3 7.084 L 62.3 6.3 L 67.676 6.3 L 67.676 18.144 A 17.006 17.006 0 0 0 67.679 18.474 Q 67.691 19.113 67.756 19.27 A 0.223 0.223 0 0 0 67.76 19.278 A 0.267 0.267 0 0 0 67.854 19.384 Q 67.947 19.448 68.116 19.486 A 1.854 1.854 0 0 0 68.292 19.516 L 69.832 19.712 L 69.832 20.496 L 62.3 20.496 L 62.3 19.712 L 63.84 19.516 A 1.847 1.847 0 0 0 64.018 19.486 Q 64.193 19.446 64.286 19.378 A 0.261 0.261 0 0 0 64.372 19.278 A 0.49 0.49 0 0 0 64.403 19.172 Q 64.455 18.907 64.456 18.169 A 21.132 21.132 0 0 0 64.456 18.144 L 64.456 8.652 A 17.006 17.006 0 0 0 64.453 8.322 Q 64.441 7.683 64.376 7.526 A 0.223 0.223 0 0 0 64.372 7.518 A 0.267 0.267 0 0 0 64.278 7.412 Q 64.185 7.348 64.016 7.31 A 1.854 1.854 0 0 0 63.84 7.28 Z M 65.414 3.805 A 2.239 2.239 0 0 0 66.052 3.892 A 2.505 2.505 0 0 0 66.158 3.89 A 1.904 1.904 0 0 0 67.452 3.346 A 1.783 1.783 0 0 0 67.914 2.601 A 2.191 2.191 0 0 0 68.012 1.932 A 2.455 2.455 0 0 0 67.997 1.656 A 1.773 1.773 0 0 0 67.452 0.532 A 1.871 1.871 0 0 0 66.756 0.109 A 2.185 2.185 0 0 0 66.052 0 Q 65.184 0 64.652 0.532 Q 64.12 1.064 64.12 1.932 Q 64.12 2.8 64.652 3.346 A 1.734 1.734 0 0 0 65.414 3.805 Z" vector-effect="non-scaling-stroke"/></g></svg>