<svg xmlns="http://www.w3.org/2000/svg" viewBox="0 0 55 55"><path d="M55 27.5C55 12.337 42.663 0 27.5 0S0 12.337 0 27.5c0 8.01 3.444 15.228 8.926 20.258l-.026.023.892.752c.058.05.12.09.18.137.474.393.965.766 1.465 1.127l.49.348c.534.368 1.082.717 1.642 1.048l.368.212a27.44 27.44 0 0 0 1.88.98c.047.022.095.042.142.064 2.09.97 4.32 1.684 6.65 2.105l.184.033a27.42 27.42 0 0 0 2.197.292l.27.02c.738.06 1.484.1 2.24.1.75 0 1.488-.04 2.222-.098l.28-.02a27.81 27.81 0 0 0 2.178-.287l.187-.034a27.25 27.25 0 0 0 6.557-2.055l.23-.104a27.64 27.64 0 0 0 1.811-.936l.44-.253c.538-.317 1.067-.648 1.58-1 .185-.126.366-.26.55-.39.44-.316.87-.642 1.29-.983.093-.075.193-.14.284-.217l.915-.764-.027-.023C51.523 42.802 55 35.55 55 27.5zm-53 0C2 13.44 13.44 2 27.5 2S53 13.44 53 27.5c0 7.577-3.325 14.39-8.59 19.063-.294-.203-.6-.385-.893-.537l-8.467-4.233c-.76-.38-1.232-1.144-1.232-1.993v-2.957a16.46 16.46 0 0 0 .617-.817c1.096-1.548 1.975-3.27 2.616-5.123a3.63 3.63 0 0 0 2.085-3.289V24.07a3.64 3.64 0 0 0-.887-2.369v-4.667c.052-.52.236-3.448-1.883-5.864C34.524 9.065 31.54 8 27.5 8s-7.024 1.065-8.867 3.168c-2.12 2.416-1.935 5.345-1.883 5.864V21.7c-.568.66-.887 1.502-.887 2.37v3.545c0 1.1.494 2.128 1.34 2.82.8 3.173 2.477 5.575 3.093 6.39v2.894a2.23 2.23 0 0 1-1.162 1.958l-7.907 4.313c-.252.137-.502.297-.752.476C5.276 41.792 2 35.022 2 27.5zm40.46 20.632a25.57 25.57 0 0 1-1.067.735l-.5.32a25.14 25.14 0 0 1-1.442.83l-.326.167a25.48 25.48 0 0 1-3.488 1.476l-.127.043c-.627.208-1.262.393-1.904.552-.654.16-1.3.294-1.97.403-.018.003-.036.007-.054.01a25.58 25.58 0 0 1-1.875.229c-.11.01-.222.017-.334.025-.62.047-1.245.077-1.872.077a25.43 25.43 0 0 1-1.895-.078l-.326-.025c-.634-.056-1.265-.13-1.9-.233l-.084-.015c-1.322-.22-2.623-.546-3.9-.97l-.118-.04a25.86 25.86 0 0 1-1.862-.713c-.59-.255-1.158-.53-1.718-.822l-.22-.113a25.7 25.7 0 0 1-1.504-.876l-.435-.28c-.454-.297-.902-.606-1.338-.933-.045-.034-.088-.07-.133-.104l.096-.054 7.907-4.313a4.23 4.23 0 0 0 2.205-3.714l-.001-3.602-.23-.278c-.022-.025-2.184-2.655-3-6.216l-.09-.396-.34-.22c-.48-.31-.77-.83-.77-1.392v-3.545c0-.465.197-.898.557-1.223l.33-.298v-5.57l-.01-.13c-.003-.024-.298-2.43 1.396-4.36C21.583 10.837 24.06 10 27.5 10c3.426 0 5.896.83 7.346 2.466 1.692 1.91 1.415 4.36 1.413 4.38l-.01 5.7.33.298c.36.324.557.758.557 1.223v3.545a1.67 1.67 0 0 1-1.181 1.575l-.497.153-.16.495a18.5 18.5 0 0 1-2.496 5.032 12.28 12.28 0 0 1-.736.949l-.248.283v3.7c0 1.612.896 3.062 2.338 3.782l8.627 4.316c-.107.08-.217.156-.325.234z"/></svg>